<svg width="20" height="20" viewBox="0 0 20 20" fill="none" xmlns="http://www.w3.org/2000/svg">
<g clip-path="url(#clip0_264_1978)">
<path d="M11.4733 0.955603C11.2799 0.76209 11.0502 0.608583 10.7974 0.503852C10.5446 0.39912 10.2736 0.345215 10 0.345215C9.72637 0.345215 9.45541 0.39912 9.20262 0.503852C8.94982 0.608583 8.72013 0.76209 8.52667 0.955603L0 9.4831V17.4998C0 18.1628 0.263392 18.7987 0.732233 19.2675C1.20107 19.7364 1.83696 19.9998 2.5 19.9998H17.5C18.163 19.9998 18.7989 19.7364 19.2678 19.2675C19.7366 18.7987 20 18.1628 20 17.4998V9.4831L11.4733 0.955603ZM17.5 17.4998H13.3333V14.8481C13.3333 14.0043 12.9981 13.195 12.4014 12.5983C11.8048 12.0016 10.9955 11.6664 10.1517 11.6664H9.84833C9.0045 11.6664 8.19523 12.0016 7.59855 12.5983C7.00188 13.195 6.66667 14.0043 6.66667 14.8481V17.4998H2.5V10.5181L10 3.0181L17.5 10.5181V17.4998Z" fill="white"/>
</g>
<defs>
<clipPath id="clip0_264_1978">
<rect width="20" height="20" fill="white"/>
</clipPath>
</defs>
</svg>
