<svg width="44" height="44" viewBox="0 0 44 44" fill="none" xmlns="http://www.w3.org/2000/svg">
<path d="M33 20.9998H11C10.4477 20.9998 10 21.4475 10 21.9998C10 22.552 10.4477 22.9998 11 22.9998H33C33.5523 22.9998 34 22.552 34 21.9998C34 21.4475 33.5523 20.9998 33 20.9998Z" fill="white"/>
<path d="M33 14.0002H11C10.4477 14.0002 10 14.448 10 15.0002C10 15.5525 10.4477 16.0002 11 16.0002H33C33.5523 16.0002 34 15.5525 34 15.0002C34 14.448 33.5523 14.0002 33 14.0002Z" fill="white"/>
<path d="M33 28H11C10.4477 28 10 28.4477 10 29C10 29.5523 10.4477 30 11 30H33C33.5523 30 34 29.5523 34 29C34 28.4477 33.5523 28 33 28Z" fill="white"/>
</svg>
