<svg width="44" height="44" viewBox="0 0 44 44" fill="none" xmlns="http://www.w3.org/2000/svg">
<g clip-path="url(#clip0_264_1995)">
<path d="M22 22C23.1867 22 24.3467 21.6481 25.3334 20.9888C26.3201 20.3295 27.0892 19.3925 27.5433 18.2961C27.9974 17.1997 28.1162 15.9933 27.8847 14.8295C27.6532 13.6656 27.0818 12.5965 26.2426 11.7574C25.4035 10.9182 24.3344 10.3468 23.1705 10.1153C22.0067 9.88378 20.8003 10.0026 19.7039 10.4567C18.6075 10.9109 17.6705 11.6799 17.0112 12.6666C16.3519 13.6533 16 14.8133 16 16C16.0016 17.5908 16.6342 19.116 17.7591 20.2409C18.884 21.3658 20.4092 21.9984 22 22ZM22 12C22.7911 12 23.5645 12.2346 24.2223 12.6741C24.8801 13.1136 25.3928 13.7384 25.6955 14.4693C25.9983 15.2002 26.0775 16.0044 25.9231 16.7804C25.7688 17.5563 25.3878 18.269 24.8284 18.8284C24.269 19.3878 23.5563 19.7688 22.7804 19.9231C22.0044 20.0775 21.2002 19.9983 20.4693 19.6955C19.7384 19.3928 19.1136 18.8801 18.6741 18.2223C18.2346 17.5645 18 16.7911 18 16C18 14.9391 18.4214 13.9217 19.1716 13.1716C19.9217 12.4214 20.9391 12 22 12V12Z" fill="white"/>
<path d="M22 24.0005C19.6139 24.0031 17.3262 24.9522 15.639 26.6395C13.9517 28.3267 13.0026 30.6144 13 33.0005C13 33.2657 13.1054 33.5201 13.2929 33.7076C13.4804 33.8951 13.7348 34.0005 14 34.0005C14.2652 34.0005 14.5196 33.8951 14.7071 33.7076C14.8946 33.5201 15 33.2657 15 33.0005C15 31.144 15.7375 29.3635 17.0503 28.0507C18.363 26.738 20.1435 26.0005 22 26.0005C23.8565 26.0005 25.637 26.738 26.9497 28.0507C28.2625 29.3635 29 31.144 29 33.0005C29 33.2657 29.1054 33.5201 29.2929 33.7076C29.4804 33.8951 29.7348 34.0005 30 34.0005C30.2652 34.0005 30.5196 33.8951 30.7071 33.7076C30.8946 33.5201 31 33.2657 31 33.0005C30.9974 30.6144 30.0483 28.3267 28.361 26.6395C26.6738 24.9522 24.3861 24.0031 22 24.0005V24.0005Z" fill="white"/>
</g>
<defs>
<clipPath id="clip0_264_1995">
<rect x="10" y="10" width="24" height="24" rx="12" fill="white"/>
</clipPath>
</defs>
</svg>
