<svg width="20" height="20" viewBox="0 0 20 20" fill="none" xmlns="http://www.w3.org/2000/svg">
<g clip-path="url(#clip0_264_1984)">
<path d="M14.3747 1.54224C13.5199 1.55051 12.679 1.75885 11.9193 2.15059C11.1595 2.54232 10.5021 3.10655 9.99967 3.79807C9.49723 3.10655 8.8398 2.54232 8.08007 2.15059C7.32034 1.75885 6.47941 1.55051 5.62467 1.54224C4.07615 1.60408 2.6151 2.27655 1.56102 3.41262C0.506932 4.54869 -0.0544331 6.05592 -0.000328606 7.60474C-0.000328606 11.3981 3.89467 15.4589 7.16634 18.1981C7.96078 18.8661 8.96546 19.2323 10.0034 19.2323C11.0414 19.2323 12.0461 18.8661 12.8405 18.1981C16.1088 15.4589 20.0072 11.3981 20.0072 7.60474C20.0612 6.05467 19.4989 4.54635 18.4432 3.41006C17.3875 2.27378 15.9245 1.60214 14.3747 1.54224V1.54224ZM11.2305 16.2822C10.8859 16.5724 10.4498 16.7315 9.99925 16.7315C9.54872 16.7315 9.11265 16.5724 8.76801 16.2822C4.78467 12.9422 2.49967 9.77974 2.49967 7.60474C2.44654 6.71908 2.74491 5.84822 3.32999 5.18122C3.91507 4.51423 4.73964 4.10494 5.62467 4.04224C6.5097 4.10494 7.33427 4.51423 7.91935 5.18122C8.50444 5.84822 8.8028 6.71908 8.74967 7.60474C8.74967 7.93626 8.88137 8.2542 9.11579 8.48862C9.35021 8.72304 9.66815 8.85474 9.99967 8.85474C10.3312 8.85474 10.6491 8.72304 10.8836 8.48862C11.118 8.2542 11.2497 7.93626 11.2497 7.60474C11.1965 6.71908 11.4949 5.84822 12.08 5.18122C12.6651 4.51423 13.4896 4.10494 14.3747 4.04224C15.2597 4.10494 16.0843 4.51423 16.6694 5.18122C17.2544 5.84822 17.5528 6.71908 17.4997 7.60474C17.4997 9.77974 15.2147 12.9422 11.2305 16.2822Z" fill="white"/>
</g>
<defs>
<clipPath id="clip0_264_1984">
<rect width="20" height="20" fill="white"/>
</clipPath>
</defs>
</svg>
