<svg width="20" height="20" viewBox="0 0 20 20" fill="none" xmlns="http://www.w3.org/2000/svg">
<g clip-path="url(#clip0_264_1983)">
<path d="M20.0011 18.2388L15.7676 14.0054C18.6647 10.1387 17.8786 4.65563 14.012 1.7586C10.1453 -1.13844 4.6622 -0.352421 1.76517 3.51426C-1.13186 7.38095 -0.345804 12.864 3.52088 15.761C6.62756 18.0887 10.8965 18.0906 14.0054 15.766L18.2388 19.9994L20.0011 18.2388ZM2.56924 8.79322C2.56924 5.35485 5.35658 2.56754 8.7949 2.56754C12.2332 2.56754 15.0206 5.35489 15.0206 8.79322C15.0206 12.2315 12.2332 15.0189 8.7949 15.0189C5.35806 15.0153 2.57287 12.2301 2.56924 8.79322ZM12.5087 7.94239C12.5087 10.094 8.7733 12.7361 8.7733 12.7361C8.7733 12.7361 5.03791 10.094 5.03791 7.94239C4.98904 6.86028 5.82377 5.94208 6.9056 5.88794C7.98767 5.94169 8.82263 6.86013 8.7733 7.94239C8.72443 6.86028 9.55916 5.94208 10.641 5.88794C11.7231 5.94165 12.558 6.86013 12.5087 7.94239Z" fill="#747478"/>
</g>
<defs>
<clipPath id="clip0_264_1983">
<rect width="20" height="20" fill="white"/>
</clipPath>
</defs>
</svg>
