<svg width="24" height="24" viewBox="0 0 24 24" fill="none" xmlns="http://www.w3.org/2000/svg">
<g clip-path="url(#clip0_264_2040)">
<path d="M5.423 16.6997C5.19021 17.0976 5.04593 17.541 5 17.9997C5 19.6177 6.476 20.3557 7.553 20.8947C8.4 21.3177 9 21.6457 9 21.9997C8.92368 22.352 8.77261 22.6838 8.557 22.9727L10.271 23.9997C10.6862 23.409 10.9377 22.719 11 21.9997C11 20.3817 9.524 19.6437 8.447 19.1047C7.6 18.6817 7 18.3537 6.994 18.0747C7.1471 17.6798 7.34293 17.3029 7.578 16.9507C9.922 16.6357 11.893 14.4447 13.011 11.7507C13.6428 13.4294 14.8676 14.8185 16.454 15.6557C16.0545 16.4064 15.9209 17.2703 16.075 18.1067C16.2815 18.683 16.6074 19.2092 17.0313 19.6509C17.4552 20.0925 17.9676 20.4397 18.535 20.6697C20.009 21.5117 20.365 21.7867 19.651 23.1167L21.413 24.0617C23.078 20.9617 20.855 19.6917 19.527 18.9337C18.812 18.5247 18.137 18.1397 18.022 17.6497C17.9819 17.0371 18.1704 16.4314 18.551 15.9497C21.7 15.4787 24 11.0167 24 6.99967C24.0279 6.20421 23.8919 5.41152 23.6002 4.67092C23.3086 3.93033 22.8676 3.25769 22.3048 2.69487C21.742 2.13205 21.0693 1.6911 20.3287 1.39946C19.5882 1.10782 18.7955 0.971729 18 0.999666C17.033 0.97318 16.0745 1.18642 15.2099 1.62036C14.3453 2.0543 13.6016 2.69546 13.045 3.48667C12.2732 2.1551 11.0837 1.1153 9.6609 0.528427C8.2381 -0.0584447 6.66145 -0.159614 5.17532 0.240601C3.68918 0.640815 2.37656 1.52006 1.44089 2.74207C0.505216 3.96407 -0.00124407 5.46059 2.2949e-06 6.99967C2.2949e-06 10.9847 2.273 15.5187 5.423 16.6997ZM18 2.99967C18.5332 2.96952 19.0667 3.05234 19.5657 3.24269C20.0646 3.43305 20.5178 3.72665 20.8954 4.10427C21.273 4.48189 21.5666 4.93502 21.757 5.43398C21.9473 5.93294 22.0301 6.46648 22 6.99967C22 10.3997 19.944 13.9997 18 13.9997C16.056 13.9997 14 10.3997 14 6.99967C13.9699 6.46648 14.0527 5.93294 14.243 5.43398C14.4334 4.93502 14.727 4.48189 15.1046 4.10427C15.4822 3.72665 15.9354 3.43305 16.4343 3.24269C16.9333 3.05234 17.4668 2.96952 18 2.99967V2.99967ZM7 1.99967C8.3256 2.00125 9.59644 2.52855 10.5338 3.46589C11.4711 4.40322 11.9984 5.67407 12 6.99967C12 10.5257 9.646 14.9997 7 14.9997C4.354 14.9997 2 10.5257 2 6.99967C2.00159 5.67407 2.52888 4.40322 3.46622 3.46589C4.40356 2.52855 5.67441 2.00125 7 1.99967V1.99967Z" fill="white"/>
<path d="M19.9774 8H17.9773C17.8962 8.87587 17.6139 9.72117 17.1523 10.47L18.8523 11.53C19.51 10.4629 19.8963 9.25089 19.9774 8V8Z" fill="white"/>
<path d="M9.97734 8H7.97734C7.8962 8.87587 7.61386 9.72117 7.15234 10.47L8.85234 11.53C9.51002 10.4629 9.89627 9.25089 9.97734 8V8Z" fill="white"/>
</g>
<defs>
<clipPath id="clip0_264_2040">
<rect width="24" height="24" fill="white"/>
</clipPath>
</defs>
</svg>
