<svg width="20" height="20" viewBox="0 0 20 20" fill="none" xmlns="http://www.w3.org/2000/svg">
<g clip-path="url(#clip0_264_1980)">
<path d="M18.9433 7.51083C18.6291 7.22444 18.2616 7.00279 17.8617 6.85854C17.4618 6.7143 17.0374 6.65029 16.6127 6.67018C16.188 6.69007 15.7715 6.79347 15.3868 6.97446C15.0021 7.15546 14.6569 7.4105 14.3708 7.725L12.3392 9.9575C11.7813 9.44814 11.0529 9.16602 10.2975 9.16667H2.91667C2.14312 9.16667 1.40125 9.47396 0.854272 10.0209C0.307291 10.5679 0 11.3098 0 12.0833L0 17.0833C0 17.8569 0.307291 18.5987 0.854272 19.1457C1.40125 19.6927 2.14312 20 2.91667 20H12.2342L19.1792 12.0567C19.743 11.419 20.0341 10.5856 19.99 9.73557C19.9459 8.88554 19.5701 8.08674 18.9433 7.51083V7.51083ZM17.3058 10.4017L11.0992 17.5H2.91667C2.80616 17.5 2.70018 17.4561 2.62204 17.378C2.5439 17.2998 2.5 17.1938 2.5 17.0833V12.0833C2.5 11.9728 2.5439 11.8668 2.62204 11.7887C2.70018 11.7106 2.80616 11.6667 2.91667 11.6667H10.2975C10.4334 11.6657 10.5646 11.7165 10.6644 11.8087C10.7642 11.9009 10.8252 12.0277 10.8349 12.1632C10.8447 12.2988 10.8025 12.433 10.7169 12.5385C10.6313 12.6441 10.5088 12.7132 10.3742 12.7317L6.07333 13.3458L6.42667 15.8208L10.7283 15.2067C11.3807 15.1101 11.9843 14.805 12.4489 14.337C12.9135 13.8689 13.2141 13.2631 13.3058 12.61L16.2225 9.4075C16.2875 9.33594 16.366 9.2779 16.4535 9.2367C16.541 9.19549 16.6357 9.17193 16.7323 9.16737C16.8289 9.1628 16.9254 9.17732 17.0164 9.21008C17.1074 9.24285 17.191 9.29323 17.2625 9.35833C17.4058 9.4914 17.4908 9.67568 17.4989 9.87108C17.507 10.0665 17.4376 10.2572 17.3058 10.4017V10.4017ZM5.83333 2.0625C5.80955 1.54063 5.99349 1.03059 6.3449 0.644041C6.69632 0.257488 7.18656 0.0259093 7.70833 0C8.2301 0.0259093 8.72035 0.257488 9.07176 0.644041C9.42318 1.03059 9.60712 1.54063 9.58333 2.0625C9.55955 1.54063 9.74349 1.03059 10.0949 0.644041C10.4463 0.257488 10.9366 0.0259093 11.4583 0C11.9801 0.0259093 12.4704 0.257488 12.8218 0.644041C13.1732 1.03059 13.3571 1.54063 13.3333 2.0625C13.3333 4.2225 9.58333 6.875 9.58333 6.875C9.58333 6.875 5.83333 4.2225 5.83333 2.0625Z" fill="white"/>
</g>
<defs>
<clipPath id="clip0_264_1980">
<rect width="20" height="20" fill="white"/>
</clipPath>
</defs>
</svg>
