<svg width="62" height="62" viewBox="0 0 62 62" fill="none" xmlns="http://www.w3.org/2000/svg">
<rect width="62" height="62" rx="31" fill="#F48D36"/>
<g clip-path="url(#clip0_264_1923)">
<path d="M27.1636 27.0001C26.5844 26.9911 26.0262 26.7811 25.5846 26.4061C24.6635 25.5614 24.1054 24.3926 24.0276 23.1451C23.7846 20.6521 25.1446 19.1811 26.6136 19.0171C26.9676 18.9779 27.3258 19.0103 27.667 19.1123C28.0082 19.2144 28.3253 19.384 28.5996 19.6111C29.0088 19.98 29.341 20.4261 29.5772 20.9238C29.8133 21.4215 29.9487 21.9609 29.9756 22.5111C30.1996 24.8351 28.9616 27.0001 27.1636 27.0001ZM21.8526 33.0001C21.3206 32.9875 20.8128 32.7755 20.4296 32.4061C19.5829 31.5245 19.0854 30.3653 19.0296 29.1441C18.8096 26.6511 20.0356 25.1801 21.3606 25.0161C21.6836 24.9797 22.0106 25.014 22.319 25.1166C22.6274 25.2191 22.9098 25.3875 23.1466 25.6101C23.9072 26.3884 24.3498 27.4226 24.3876 28.5101C24.5886 30.8351 23.3586 33.0001 21.8526 33.0001ZM34.8356 27.0001C33.0256 27.0001 31.8016 24.8341 32.0286 22.5081C32.0555 21.9579 32.1909 21.4185 32.4271 20.9208C32.6632 20.4231 32.9954 19.977 33.4046 19.6081C33.6786 19.3824 33.9951 19.2137 34.3353 19.1122C34.6756 19.0107 35.0327 18.9784 35.3856 19.0171C36.8546 19.1811 38.2146 20.6521 37.9716 23.1451C37.8941 24.3929 37.336 25.5621 36.4146 26.4071C35.9729 26.7818 35.4148 26.9914 34.8356 27.0001V27.0001ZM40.0526 33.0001C38.1666 33.0001 37.2256 30.8341 37.4376 28.5081C37.4797 27.4136 37.9378 26.3764 38.7186 25.6081C38.9666 25.3839 39.2595 25.215 39.5777 25.1126C39.896 25.0102 40.2324 24.9766 40.5646 25.0141C41.9326 25.1781 43.1996 26.6491 42.9736 29.1421C42.9104 30.3716 42.3934 31.5339 41.5226 32.4041C41.1221 32.776 40.599 32.9881 40.0526 33.0001V33.0001ZM34.7136 43.0001C33.8112 43.0161 32.9222 42.7811 32.1456 42.3211C31.8005 42.1105 31.404 41.9991 30.9996 41.9991C30.5953 41.9991 30.1988 42.1105 29.8536 42.3211C26.7556 44.1751 22.8996 42.1881 22.9996 37.8331C22.9996 33.2841 27.5066 29.0001 30.9996 29.0001C34.4926 29.0001 38.9996 33.2841 38.9996 37.8331C38.9996 40.8751 37.2376 43.0001 34.7136 43.0001ZM30.9996 39.0001C31.902 38.9842 32.7911 39.2192 33.5676 39.6791C35.5456 40.8121 36.0166 38.8191 35.9996 37.8331C35.9996 34.8831 32.8356 32.0001 30.9996 32.0001C29.1636 32.0001 25.9996 34.8831 25.9996 37.8331C25.9766 38.8041 26.4616 40.8191 28.4316 39.6791C29.2082 39.2192 30.0972 38.9842 30.9996 39.0001V39.0001Z" fill="white"/>
</g>
<defs>
<clipPath id="clip0_264_1923">
<rect width="24" height="24" fill="white" transform="translate(19 19)"/>
</clipPath>
</defs>
</svg>
