<svg width="33" height="33" viewBox="0 0 33 33" fill="none" xmlns="http://www.w3.org/2000/svg">
<rect width="32.0333" height="32.0333" rx="16.0167" fill="#F07915"/>
<path d="M21.2724 10.7614V10.7731M6.67383 11.3454C6.67383 10.1064 7.16601 8.91817 8.04209 8.04209C8.91817 7.16601 10.1064 6.67383 11.3454 6.67383H20.6884C21.9274 6.67383 23.1156 7.16601 23.9917 8.04209C24.8678 8.91817 25.3599 10.1064 25.3599 11.3454V20.6884C25.3599 21.9274 24.8678 23.1156 23.9917 23.9917C23.1156 24.8678 21.9274 25.3599 20.6884 25.3599H11.3454C10.1064 25.3599 8.91817 24.8678 8.04209 23.9917C7.16601 23.1156 6.67383 21.9274 6.67383 20.6884V11.3454ZM12.5132 16.0169C12.5132 16.9461 12.8824 17.8373 13.5394 18.4943C14.1965 19.1514 15.0877 19.5205 16.0169 19.5205C16.9461 19.5205 17.8373 19.1514 18.4943 18.4943C19.1514 17.8373 19.5205 16.9461 19.5205 16.0169C19.5205 15.0877 19.1514 14.1965 18.4943 13.5394C17.8373 12.8824 16.9461 12.5132 16.0169 12.5132C15.0877 12.5132 14.1965 12.8824 13.5394 13.5394C12.8824 14.1965 12.5132 15.0877 12.5132 16.0169Z" stroke="white" stroke-width="1.33472" stroke-linecap="round" stroke-linejoin="round"/>
</svg>
