<svg width="33" height="33" viewBox="0 0 33 33" fill="none" xmlns="http://www.w3.org/2000/svg">
<rect width="32.0333" height="32.0333" rx="16.0167" fill="#F07915"/>
<path d="M25.3599 11.7787V15.9668C23.4769 15.7799 21.6813 15.0792 20.1694 13.9412V18.6131C20.1691 19.8809 19.8117 21.123 19.1382 22.197C18.4647 23.271 17.5022 24.1336 16.3612 24.6859C15.2201 25.2382 13.9466 25.4579 12.6864 25.3198C11.4263 25.1816 10.2306 24.6913 9.23622 23.905C8.24186 23.1186 7.4891 22.068 7.06419 20.8736C6.63927 19.6792 6.55939 18.3892 6.83369 17.1514C7.10798 15.9137 7.72537 14.7783 8.61511 13.8752C9.50485 12.9722 10.631 12.338 11.8644 12.0455V16.5367C11.5105 16.8022 11.2303 17.1537 11.0505 17.5579C10.8706 17.9621 10.7971 18.4056 10.8368 18.8462C10.8765 19.2869 11.0282 19.71 11.2775 20.0755C11.5267 20.441 11.8653 20.7368 12.2609 20.9346C12.6566 21.1325 13.0963 21.2259 13.5382 21.206C13.9802 21.1861 14.4097 21.0536 14.786 20.821C15.1623 20.5884 15.473 20.2635 15.6884 19.877C15.9038 19.4906 16.0169 19.0556 16.0169 18.6131V6.67383H20.2555C20.4717 7.94916 21.0791 9.12567 21.9937 10.0403C22.9083 10.955 24.0847 11.5625 25.3599 11.7787Z" stroke="white" stroke-width="1.33472" stroke-linecap="round" stroke-linejoin="round"/>
</svg>
